<?xml version="1.0" encoding="UTF-8"?>
<svg id="Layer_2" data-name="Layer 2" xmlns="http://www.w3.org/2000/svg" xmlns:xlink="http://www.w3.org/1999/xlink" viewBox="0 0 203.6 165.54">
  <defs>
    <style>
      .cls-1 {
        fill: url(#linear-gradient-2);
      }

      .cls-2 {
        fill: url(#linear-gradient-6);
      }

      .cls-3 {
        fill: url(#linear-gradient-5);
      }

      .cls-4 {
        fill: url(#linear-gradient-3);
      }

      .cls-5 {
        fill: url(#linear-gradient);
      }

      .cls-6 {
        fill: url(#linear-gradient-4);
      }
    </style>
    <linearGradient id="linear-gradient" x1="0" y1="82.76" x2="61.91" y2="82.76" gradientUnits="userSpaceOnUse">
      <stop offset="0" stop-color="#262262"/>
      <stop offset=".42" stop-color="#252363"/>
      <stop offset=".57" stop-color="#232a6a"/>
      <stop offset=".68" stop-color="#203676"/>
      <stop offset=".77" stop-color="#1b4787"/>
      <stop offset=".84" stop-color="#155c9d"/>
      <stop offset=".91" stop-color="#0e77b8"/>
      <stop offset=".96" stop-color="#0697d8"/>
      <stop offset="1" stop-color="#00aeef"/>
    </linearGradient>
    <linearGradient id="linear-gradient-2" x1="83.03" y1="92.56" x2="144.91" y2="92.56" gradientUnits="userSpaceOnUse">
      <stop offset="0" stop-color="#262262"/>
      <stop offset=".4" stop-color="#165b9b"/>
      <stop offset="1" stop-color="#00aeef"/>
    </linearGradient>
    <linearGradient id="linear-gradient-3" x1="70.92" y1="111.09" x2="185.68" y2="111.09" xlink:href="#linear-gradient"/>
    <linearGradient id="linear-gradient-4" x1="70.92" y1="24.24" x2="196.12" y2="24.24" gradientUnits="userSpaceOnUse">
      <stop offset="0" stop-color="#262262"/>
      <stop offset=".21" stop-color="#1f3a7a"/>
      <stop offset=".64" stop-color="#0e77b8"/>
      <stop offset="1" stop-color="#00aeef"/>
    </linearGradient>
    <linearGradient id="linear-gradient-5" x1="83.01" y1="45.71" x2="119.13" y2="45.71" gradientUnits="userSpaceOnUse">
      <stop offset="0" stop-color="#262262"/>
      <stop offset=".18" stop-color="#252565"/>
      <stop offset=".35" stop-color="#223070"/>
      <stop offset=".51" stop-color="#1d4383"/>
      <stop offset=".67" stop-color="#155d9d"/>
      <stop offset=".83" stop-color="#0c7ebf"/>
      <stop offset=".98" stop-color="#01a6e7"/>
      <stop offset="1" stop-color="#00aeef"/>
    </linearGradient>
    <linearGradient id="linear-gradient-6" x1="70.92" y1="93.99" x2="203.6" y2="93.99" gradientUnits="userSpaceOnUse">
      <stop offset="0" stop-color="#262262"/>
      <stop offset=".16" stop-color="#242666"/>
      <stop offset=".33" stop-color="#213272"/>
      <stop offset=".5" stop-color="#1b4787"/>
      <stop offset=".68" stop-color="#1364a5"/>
      <stop offset=".86" stop-color="#098acb"/>
      <stop offset="1" stop-color="#00aeef"/>
    </linearGradient>
  </defs>
  <g id="Layer_1-2" data-name="Layer 1">
    <path class="cls-5" d="m35.21,87.66c-2.35-2.11-2.45-5.77-.22-8.02l.54-.54,24.77-24.87c2.19-2.21,2.15-5.81-.12-7.94l-9.39-8.87c-2.21-2.09-5.69-2.01-7.8.2L1.55,80.69c-2.15,2.23-2.05,5.77.2,7.88l42.06,39.53c2.27,2.13,5.83,1.99,7.92-.34l8.73-9.75c2.05-2.27,1.87-5.77-.4-7.82l-24.85-22.54Z"/>
    <path class="cls-1" d="m143.36,80.69l-24.23-25.19h-33.24l24.03,24.13c2.23,2.25,2.13,5.91-.22,8.02l-24.85,22.54c-2.27,2.05-2.45,5.55-.4,7.82l8.73,9.75c2.09,2.33,5.67,2.47,7.94.34l42.04-39.53c2.25-2.11,2.35-5.65.2-7.88Z"/>
    <path class="cls-4" d="m185.68,105.1c0,6.88-1.39,13.39-3.94,19.5-2.57,5.89-6.11,11.22-10.62,15.74s-9.85,8.08-15.76,10.62c-6.11,2.57-12.59,3.74-19.3,3.74h-65.14v-14.58c0-4.34,3.52-7.86,7.86-7.86h42.14c6.7,0,13.19-1.17,19.3-3.74,5.91-2.55,11.22-6.09,15.76-10.62s8.06-9.85,10.62-15.74c2.55-6.11,3.94-12.61,3.94-19.5,0-5.23-.86-10.37-2.47-15.18,1.05.88,2.07,1.81,3.04,2.79,4.52,4.34,8.06,9.65,10.62,15.74,2.55,5.91,3.94,12.41,3.94,19.1Z"/>
    <path class="cls-6" d="m196.12,48.48c-.54-.58-1.05-1.11-1.59-1.65-5.11-5.11-10.62-9.43-16.73-12.99-6.31-3.74-12.79-6.49-19.87-8.46-7.1-1.97-14.38-2.94-21.86-2.94h-65.14V7.84c0-4.34,3.52-7.84,7.86-7.84h42.14c7.48,0,14.76.97,21.86,2.94,7.08,1.97,13.57,4.72,19.87,8.46,6.11,3.56,11.62,7.88,16.73,12.99,4.91,4.93,9.25,10.64,12.79,16.73,1.47,2.39,2.79,4.83,3.94,7.36Z"/>
    <path class="cls-3" d="m119.13,55.51h-33.24l-1.27-1.27c-2.19-2.21-2.13-5.81.14-7.94l1.31-1.23,8.06-7.64c.42-.4.9-.72,1.39-.95,2.11-1.03,4.7-.64,6.41,1.15l17.21,17.89Z"/>
    <path class="cls-2" d="m203.6,82.66c0,7.68-.97,14.96-2.94,22.04-1.97,7.08-4.73,13.59-8.48,19.7-1.57,2.71-3.3,5.33-5.19,7.86-2.33,3.14-4.87,6.13-7.6,8.87-5.11,5.11-10.62,9.45-16.73,12.99-6.31,3.74-12.79,6.49-19.87,8.46-7.1,1.97-14.38,2.96-21.86,2.96h-42.14c-4.34,0-7.86-3.52-7.86-7.86v-2.98h65.14c6.7,0,13.19-1.17,19.3-3.74,5.91-2.55,11.22-6.09,15.76-10.62s8.06-9.85,10.62-15.74c2.55-6.11,3.94-12.61,3.94-19.5s-1.39-13.19-3.94-19.1c-2.57-6.09-6.11-11.4-10.62-15.74-.97-.97-1.99-1.91-3.04-2.79-.42-1.33-.92-2.65-1.47-3.92-2.57-6.09-6.11-11.4-10.62-15.74-4.54-4.54-9.85-8.08-15.76-10.82-6.11-2.57-12.59-3.94-19.3-3.94h-42.14c-4.34,0-7.86-3.52-7.86-7.86v-2.77h65.14c7.48,0,14.76.97,21.86,2.94,7.08,1.97,13.57,4.72,19.87,8.46,6.11,3.56,11.62,7.88,16.73,12.99.54.54,1.05,1.07,1.59,1.65l.02.02c1.83,3.92,3.32,8.02,4.52,12.31,1.97,7.08,2.94,14.36,2.94,21.84Z"/>
  </g>
</svg>